<svg width="167" height="117" viewBox="0 0 167 117" fill="none" xmlns="http://www.w3.org/2000/svg">
<path fill-rule="evenodd" clip-rule="evenodd" d="M144.565 19.3384C131.095 6.44613 112.158 0 87.7543 0C59.1523 0 36.7168 9.91038 20.4478 29.7311C10.0133 42.3835 3.19737 57.5038 0 75.0923C7.16118 86.738 16.9298 102.927 25.0599 116.508C24.6966 112.593 24.515 108.531 24.515 104.322C24.515 76.6958 30.3317 56.2173 41.9649 42.8865C53.6855 29.468 69.0361 22.7588 88.0166 22.7588C103.586 22.7588 115.656 26.3984 124.228 33.6778C132.888 40.9571 138.66 50.8236 141.547 63.2773H167C165.513 46.877 158.035 32.2307 144.565 19.3384Z" fill="white"/>
</svg>
