<svg width="944" height="204" viewBox="0 0 944 204" fill="none" xmlns="http://www.w3.org/2000/svg">
<path d="M0 4.86413H140.42V28.5275H25.4356V87.16H131.767V109.509H25.4356V174.977H142.387V197.983H0V4.86413Z" fill="white"/>
<path d="M193.651 135.67C194.263 146.625 196.841 155.521 201.387 162.357C210.04 175.153 225.293 181.55 247.144 181.55C256.934 181.55 265.85 180.148 273.891 177.344C289.45 171.91 297.229 162.182 297.229 148.159C297.229 137.642 293.951 130.148 287.396 125.679C280.753 121.297 270.351 117.484 256.191 114.241L230.1 108.326C213.056 104.469 200.993 100.219 193.913 95.5736C181.676 87.5106 175.558 75.4598 175.558 59.4213C175.558 42.0682 181.545 27.8263 193.52 16.6958C205.495 5.56527 222.452 0 244.391 0C264.582 0 281.714 4.90795 295.787 14.7239C309.947 24.4521 317.027 40.0524 317.027 61.5247H292.509C291.198 51.1829 288.401 43.2513 284.118 37.7299C276.164 27.6511 262.659 22.6116 243.604 22.6116C228.221 22.6116 217.164 25.8544 210.433 32.3399C203.703 38.8254 200.338 46.3626 200.338 54.9515C200.338 64.4169 204.271 71.3406 212.138 75.7227C217.295 78.5272 228.964 82.0329 247.144 86.2397L274.153 92.4185C287.177 95.3983 297.229 99.4737 304.309 104.645C316.546 113.672 322.664 126.774 322.664 143.952C322.664 165.337 314.885 180.63 299.327 189.833C283.856 199.035 265.85 203.636 245.309 203.636C221.359 203.636 202.61 197.501 189.062 185.231C175.514 173.049 168.871 156.529 169.133 135.67H193.651Z" fill="white"/>
<path d="M495.862 4.86413V27.8702H430.962V197.983H404.478V27.8702H339.578V4.86413H495.862Z" fill="white"/>
<path d="M525.756 4.86413H552.109V197.983H525.756V4.86413Z" fill="white"/>
<path d="M887.491 118.843L858.253 33.5231L827.18 118.843H887.491ZM844.618 4.86413H874.118L944 197.983H915.418L895.882 140.14H819.707L798.86 197.983H772.113L844.618 4.86413Z" fill="white"/>
</svg>
