<svg width="1302" height="204" viewBox="0 0 1302 204" fill="none" xmlns="http://www.w3.org/2000/svg">
<path d="M0 4.8634H133.582V28.5232H26.0872V87.1469H120.604V110.149H26.0872V197.954H0V4.8634Z" fill="white"/>
<path d="M251.171 93.3247C263.406 93.3247 273.063 90.8711 280.142 85.9639C287.309 81.0567 290.892 72.2062 290.892 59.4124C290.892 45.6546 285.91 36.2784 275.947 31.2835C270.616 28.6546 263.494 27.3402 254.58 27.3402H190.869V93.3247H251.171ZM164.782 4.8634H253.924C268.606 4.8634 280.71 7.01031 290.236 11.3041C308.327 19.5412 317.372 34.7448 317.372 56.9149C317.372 68.482 314.969 77.9459 310.162 85.3067C305.443 92.6675 298.801 98.5825 290.236 103.052C297.752 106.119 303.389 110.149 307.147 115.144C310.993 120.139 313.134 128.245 313.571 139.461L314.488 165.356C314.75 172.716 315.362 178.193 316.324 181.786C317.897 187.92 320.693 191.863 324.713 193.616V197.954H292.727C291.853 196.289 291.154 194.142 290.63 191.513C290.105 188.884 289.668 183.802 289.319 176.265L287.746 144.062C287.134 131.443 282.458 122.987 273.719 118.693C268.737 116.327 260.916 115.144 250.254 115.144H190.869V197.954H164.782V4.8634Z" fill="white"/>
<path d="M358.142 4.8634H498.541V28.5232H383.573V87.1469H489.889V109.492H383.573V174.951H500.507V197.954H358.142V4.8634Z" fill="white"/>
<path d="M551.764 135.649C552.376 146.603 554.954 155.497 559.498 162.332C568.15 175.126 583.401 181.523 605.249 181.523C615.037 181.523 623.951 180.121 631.992 177.317C647.548 171.884 655.326 162.157 655.326 148.137C655.326 137.621 652.049 130.129 645.494 125.66C638.852 121.278 628.452 117.466 614.294 114.224L588.207 108.309C571.165 104.454 559.105 100.204 552.026 95.5593C539.791 87.4974 533.673 75.4484 533.673 59.4124C533.673 42.0619 539.66 27.8222 551.633 16.6933C563.606 5.56443 580.56 0 602.496 0C622.684 0 639.814 4.90722 653.884 14.7216C668.042 24.4485 675.121 40.0464 675.121 61.5155H650.607C649.296 51.1753 646.499 43.2448 642.217 37.7242C634.264 27.6469 620.762 22.6082 601.71 22.6082C586.328 22.6082 575.273 25.8505 568.544 32.3351C561.814 38.8196 558.449 46.3557 558.449 54.9433C558.449 64.4072 562.382 71.3299 570.248 75.7113C575.404 78.5155 587.071 82.0206 605.249 86.2268L632.254 92.4046C645.276 95.384 655.326 99.4588 662.405 104.629C674.64 113.655 680.758 126.755 680.758 143.93C680.758 165.312 672.98 180.603 657.423 189.804C641.955 199.005 623.951 203.606 603.414 203.606C579.468 203.606 560.722 197.472 547.176 185.204C533.629 173.023 526.987 156.505 527.25 135.649H551.764Z" fill="white"/>
<path d="M853.93 4.8634V27.866H789.039V197.954H762.559V27.866H697.669V4.8634H853.93Z" fill="white"/>
<path d="M883.818 4.8634H910.168V197.954H883.818V4.8634Z" fill="white"/>
<path d="M1245.5 118.825L1216.27 33.518L1185.2 118.825H1245.5ZM1202.63 4.8634H1232.13L1302 197.954H1273.42L1253.89 140.119H1177.73L1156.88 197.954H1130.14L1202.63 4.8634Z" fill="white"/>
</svg>
